<svg xmlns="http://www.w3.org/2000/svg" width="30" height="30" viewBox="0 0 30 30">
    <defs>
        <style>
            .cls-1{fill:#222}
        </style>
    </defs>
    <g id="ico_instagram" transform="translate(-26.321 -1.321)">
        <path id="패스_26" d="M17.105 10.321a6.8 6.8 0 0 0-6.784 6.784v16.432a6.8 6.8 0 0 0 6.784 6.784h16.432a6.8 6.8 0 0 0 6.784-6.784V17.105a6.8 6.8 0 0 0-6.784-6.784zm8.216 22.342a7.349 7.349 0 1 1 7.349-7.349 7.35 7.35 0 0 1-7.349 7.349zm9.171-14.281a2.071 2.071 0 1 1 2.071-2.071 2.071 2.071 0 0 1-2.071 2.071z" class="cls-1" data-name="패스 26" transform="translate(16 -9)"/>
    </g>
</svg>
