<svg xmlns="http://www.w3.org/2000/svg" width="36.277" height="33.328" viewBox="0 0 36.277 33.328">
    <defs>
        <style>
            .cls-1{fill:#222}
        </style>
    </defs>
    <g id="ico_kakao" transform="translate(287.79 -126.536)">
        <path id="패스_29" d="M-264.79 148.541l-1.052-3.295-1.14 3.295z" class="cls-1" data-name="패스 29" transform="translate(-7.247 -6.517)"/>
        <path id="패스_30" d="M-269.651 126.536c-10.018 0-18.139 6.42-18.139 14.339 0 5.155 3.441 9.673 8.606 12.2-.38 1.416-1.374 5.13-1.574 5.925-.245.987.362.974.76.708.312-.207 4.97-3.375 6.98-4.742a22.87 22.87 0 0 0 3.367.247c10.018 0 18.139-6.42 18.139-14.339s-8.121-14.338-18.139-14.338zm6.892 10.683c-.011-.4.5-.6 1-.6.467 0 .922.179.932.55.027.978 0 2.746 0 2.746s2.812-2.816 3.213-3.213 1.692.877 1.279 1.287c-.708.7-2.5 2.647-2.5 2.647l2.646 3.485c.5.665-1.081 1.865-1.584 1.2l-2.493-3.4-.57.457v2.564c0 .761-1.94.764-1.941 0-.005-.485.037-7.003.018-7.723zm-9.2-.033c.335.716 2.173 5.763 2.7 7.164.371.981-1.424 1.662-1.8.681-.459-1.212-.341-1.266-.341-1.266h-3.46l-.377 1.323c-.4.927-2.143.172-1.74-.755.558-1.284 2.238-6.121 2.7-7.146a1.094 1.094 0 0 1 1.06-.568 1.43 1.43 0 0 1 1.255.566zm-4.665-.878c1.176 0 1.174 1.992 0 1.99a9.778 9.778 0 0 0-1.882.138l-.008 6.329c0 .882-1.961.836-1.964-.046.01-1.21 0-6.469 0-6.469h-1.891c-1.107 0-1.111-1.943 0-1.943zm8.117 8.113l-.009-6.941a.921.921 0 0 1 1.024-.868.92.92 0 0 1 1.021.864v6.091s1.621.009 2.51.009.893 1.891 0 1.891-2.893.009-3.795.009-.754-1.055-.754-1.055z" class="cls-1" data-name="패스 30"/>
    </g>
</svg>
