<svg xmlns="http://www.w3.org/2000/svg" width="33.144" height="26.313" viewBox="0 0 33.144 26.313">
    <defs>
        <style>
            .cls-1{fill:#222}
        </style>
    </defs>
    <path id="icon_medium" d="M34.93 49.368a1.283 1.283 0 0 0-.418-1.083l-3.095-3.728V44h9.609l7.427 16.289L54.984 44h9.16v.557L61.5 47.094a.773.773 0 0 0-.294.743v18.64a.773.773 0 0 0 .294.743l2.584 2.537v.557h-13v-.557l2.677-2.6c.263-.263.263-.34.263-.742V51.348l-7.443 18.9h-1.005l-8.665-18.9v12.669a1.748 1.748 0 0 0 .48 1.454l3.482 4.223v.557H31v-.557l3.482-4.223a1.686 1.686 0 0 0 .449-1.454z" class="cls-1" transform="translate(-31 -44)"/>
</svg>
