<svg xmlns="http://www.w3.org/2000/svg" width="18.799" height="34.772" viewBox="0 0 18.799 34.772">
    <defs>
        <style>
            .cls-1{fill:#222}
        </style>
    </defs>
    <g id="ico_facebook" transform="translate(-22.077)">
        <g id="그룹_19" data-name="그룹 19" transform="translate(22.077)">
            <path id="패스_28" d="M40.168.007L35.659 0c-5.066 0-8.34 3.359-8.34 8.557V12.5h-4.533a.709.709 0 0 0-.709.709v5.717a.709.709 0 0 0 .709.709h4.534v14.428a.709.709 0 0 0 .709.709h5.915a.709.709 0 0 0 .709-.709V19.638h5.3a.709.709 0 0 0 .709-.709v-5.717a.71.71 0 0 0-.709-.709h-5.3V9.158c0-1.608.383-2.424 2.477-2.424h3.038a.709.709 0 0 0 .709-.709V.716a.709.709 0 0 0-.709-.709z" class="cls-1" data-name="패스 28" transform="translate(-22.077)"/>
        </g>
    </g>
</svg>
