<svg xmlns="http://www.w3.org/2000/svg" width="34" height="23.8" viewBox="0 0 34 23.8">
    <defs>
        <style>
            .cls-1{fill:#222}
        </style>
    </defs>
    <g id="ico_mail" transform="translate(-10 -22)">
        <g id="그룹_18" data-name="그룹 18" transform="translate(10 22)">
            <path id="패스_27" d="M12.55 974.362a2.545 2.545 0 0 0-2.55 2.55v18.7a2.544 2.544 0 0 0 2.55 2.55h28.9a2.544 2.544 0 0 0 2.55-2.55v-18.7a2.545 2.545 0 0 0-2.55-2.55zm2.019 3.812a.85.85 0 0 1 .7.252l10.519 10.319a1.717 1.717 0 0 0 2.391 0l10.545-10.319a.85.85 0 1 1 1.2 1.209L33.03 986.4l6.88 6.468a.85.85 0 0 1-1.169 1.235l-6.92-6.521-2.444 2.391a3.435 3.435 0 0 1-4.781 0l-2.417-2.377-6.92 6.508a.85.85 0 0 1-1.169-1.235l6.866-6.468-6.88-6.76a.85.85 0 0 1 .491-1.461z" class="cls-1" data-name="패스 27" transform="translate(-10 -974.362)"/>
        </g>
    </g>
</svg>
