<svg xmlns="http://www.w3.org/2000/svg" viewBox="0 0 187.316 39.579">
    <defs>
        <style>
            .cls-1{fill:#222}
        </style>
    </defs>
    <g id="디프만로고" transform="translate(-410 -14.723)">
        <g id="그룹_10" data-name="그룹 10" transform="translate(402.494 -2.86)">
            <g id="그룹_1" data-name="그룹 1" transform="translate(53.506 27.171)">
                <path id="패스_1" d="M53.533 48.636V26.981h6.279a6.525 6.525 0 0 1 5.269 2.536 9.912 9.912 0 0 1 2.084 6.507v3.583a9.881 9.881 0 0 1-2.084 6.507 6.551 6.551 0 0 1-5.269 2.522zm3.944-18.37v15.1h2.335a2.8 2.8 0 0 0 2.459-1.609 8.146 8.146 0 0 0 .937-4.148v-3.615a8.091 8.091 0 0 0-.937-4.122 2.792 2.792 0 0 0-2.459-1.606z" class="cls-1" data-name="패스 1" transform="translate(-53.443 -26.887)"/>
                <path id="패스_2" d="M59.876 48.792H53.6a.09.09 0 0 1-.09-.09V27.047a.093.093 0 0 1 .09-.094h6.279a6.652 6.652 0 0 1 5.339 2.569 10.054 10.054 0 0 1 2.1 6.567v3.583a10.013 10.013 0 0 1-2.1 6.564 6.658 6.658 0 0 1-5.342 2.556zm-6.186-.184h6.186a6.492 6.492 0 0 0 5.2-2.486 9.838 9.838 0 0 0 2.061-6.45V36.09a9.869 9.869 0 0 0-2.061-6.45 6.479 6.479 0 0 0-5.2-2.5H53.69zm6.186-3.088h-2.335a.094.094 0 0 1-.094-.094V30.332a.093.093 0 0 1 .094-.09h2.335a2.89 2.89 0 0 1 2.539 1.649 8.239 8.239 0 0 1 .95 4.168v3.613a8.3 8.3 0 0 1-.95 4.2 2.887 2.887 0 0 1-2.539 1.648zm-2.245-.184h2.245a2.723 2.723 0 0 0 2.382-1.559 8.141 8.141 0 0 0 .923-4.1v-3.618a8.055 8.055 0 0 0-.923-4.075 2.72 2.72 0 0 0-2.382-1.562h-2.245z" class="cls-1" data-name="패스 2" transform="translate(-53.506 -26.953)"/>
            </g>
            <g id="그룹_2" data-name="그룹 2" transform="translate(69.782 27.171)">
                <path id="패스_3" d="M68.563 39.072H62.34v6.293h7.45v3.272H58.4V26.981h11.364v3.285H62.34V35.8h6.223z" class="cls-1" data-name="패스 3" transform="translate(-58.305 -26.887)"/>
                <path id="패스_4" d="M69.859 48.792H58.465a.091.091 0 0 1-.094-.09V27.047a.094.094 0 0 1 .094-.094h11.364a.093.093 0 0 1 .09.094v3.285a.09.09 0 0 1-.09.09H62.5v5.353h6.132a.09.09 0 0 1 .09.09v3.272a.09.09 0 0 1-.09.09H62.5v6.109h7.363a.09.09 0 0 1 .09.09V48.7a.09.09 0 0 1-.094.092zm-11.3-.184h11.207V45.52h-7.36a.091.091 0 0 1-.09-.094v-6.289a.09.09 0 0 1 .09-.09h6.129v-3.091h-6.129a.09.09 0 0 1-.09-.09v-5.534a.09.09 0 0 1 .09-.09h7.333v-3.1H58.555z" class="cls-1" data-name="패스 4" transform="translate(-58.371 -26.953)"/>
            </g>
            <g id="그룹_3" data-name="그룹 3" transform="translate(83.823 27.171)">
                <path id="패스_5" d="M66.539 40.8v7.838H62.6V26.981h6.811a6.325 6.325 0 0 1 4.851 1.91 7.034 7.034 0 0 1 1.79 5 7.006 7.006 0 0 1-1.79 5 6.352 6.352 0 0 1-4.851 1.9zm0-3.289h2.867a2.3 2.3 0 0 0 2.017-1.01 4.46 4.46 0 0 0 .693-2.573 4.626 4.626 0 0 0-.693-2.626 2.276 2.276 0 0 0-2.017-1.034h-2.867z" class="cls-1" data-name="패스 5" transform="translate(-62.505 -26.887)"/>
                <path id="패스_6" d="M66.6 48.792h-3.942a.09.09 0 0 1-.09-.09V27.047a.093.093 0 0 1 .09-.094h6.812a6.442 6.442 0 0 1 4.918 1.94 7.163 7.163 0 0 1 1.812 5.069 7.116 7.116 0 0 1-1.817 5.068 6.467 6.467 0 0 1-4.915 1.924h-2.775V48.7a.09.09 0 0 1-.093.092zm-3.851-.184h3.757v-7.744a.1.1 0 0 1 .094-.094h2.87a6.3 6.3 0 0 0 4.784-1.87 6.936 6.936 0 0 0 1.763-4.941 6.958 6.958 0 0 0-1.763-4.941 6.261 6.261 0 0 0-4.784-1.883h-6.718zm6.721-10.943H66.6a.093.093 0 0 1-.094-.09v-7.243a.093.093 0 0 1 .094-.09h2.87a2.373 2.373 0 0 1 2.094 1.074 4.748 4.748 0 0 1 .709 2.676 4.574 4.574 0 0 1-.709 2.623 2.384 2.384 0 0 1-2.094 1.05zm-2.777-.181h2.777a2.218 2.218 0 0 0 1.944-.974 4.386 4.386 0 0 0 .676-2.519 4.572 4.572 0 0 0-.676-2.576 2.2 2.2 0 0 0-1.944-.994h-2.777z" class="cls-1" data-name="패스 6" transform="translate(-62.568 -26.953)"/>
            </g>
            <g id="그룹_4" data-name="그룹 4" transform="translate(99.931 27.188)">
                <path id="패스_7" d="M71.352 39.939v8.688h-3.941V26.985h6.1a6.6 6.6 0 0 1 4.774 1.679 6.209 6.209 0 0 1 1.74 4.687 5.6 5.6 0 0 1-.733 2.914 5.246 5.246 0 0 1-2.121 1.964 3.986 3.986 0 0 1 2.29 1.871 6.9 6.9 0 0 1 .7 3.272v1.578a9.914 9.914 0 0 0 .194 1.907 2.609 2.609 0 0 0 .7 1.455v.314h-4.083a2.542 2.542 0 0 1-.622-1.556 17.217 17.217 0 0 1-.134-2.148V43.4a4.384 4.384 0 0 0-.642-2.559 2.13 2.13 0 0 0-1.847-.907zm0-3.272h2.124a2.361 2.361 0 0 0 1.937-.81 3.549 3.549 0 0 0 .662-2.3 3.979 3.979 0 0 0-.656-2.409 2.23 2.23 0 0 0-1.914-.893h-2.153z" class="cls-1" data-name="패스 7" transform="translate(-67.317 -26.895)"/>
                <path id="패스_8" d="M81.12 48.781h-4.082a.091.091 0 0 1-.064-.027 2.639 2.639 0 0 1-.649-1.609 17.312 17.312 0 0 1-.134-2.161v-1.516a4.319 4.319 0 0 0-.626-2.506 2.027 2.027 0 0 0-1.773-.866h-2.284v8.594a.09.09 0 0 1-.09.09h-3.945a.09.09 0 0 1-.09-.09V27.048a.09.09 0 0 1 .09-.09h6.1a6.7 6.7 0 0 1 4.838 1.706 6.325 6.325 0 0 1 1.766 4.751 5.715 5.715 0 0 1-.746 2.961 5.271 5.271 0 0 1-1.977 1.9 4.037 4.037 0 0 1 2.155 1.847 7.006 7.006 0 0 1 .709 3.315v1.576a9.928 9.928 0 0 0 .194 1.887 2.519 2.519 0 0 0 .672 1.408.093.093 0 0 1 .027.067v.314a.09.09 0 0 1-.091.091zm-4.045-.181h3.954v-.181a2.747 2.747 0 0 1-.7-1.479 10.069 10.069 0 0 1-.2-1.924v-1.578a6.854 6.854 0 0 0-.686-3.228 3.906 3.906 0 0 0-2.245-1.83.1.1 0 0 1-.06-.08.088.088 0 0 1 .05-.087 5.147 5.147 0 0 0 2.081-1.93A5.529 5.529 0 0 0 80 33.415a6.159 6.159 0 0 0-1.713-4.62 6.531 6.531 0 0 0-4.71-1.656h-6.01V48.6h3.76V40a.09.09 0 0 1 .09-.09h2.375a2.218 2.218 0 0 1 1.92.947 4.47 4.47 0 0 1 .662 2.609v1.516a17.643 17.643 0 0 0 .13 2.141 2.544 2.544 0 0 0 .571 1.477zm-3.533-11.78h-2.124a.09.09 0 0 1-.09-.09v-6.41a.09.09 0 0 1 .09-.09h2.155a2.322 2.322 0 0 1 1.987.93 4.071 4.071 0 0 1 .676 2.462 3.638 3.638 0 0 1-.686 2.355 2.448 2.448 0 0 1-2.008.843zm-2.034-.181h2.034a2.282 2.282 0 0 0 1.867-.776 3.487 3.487 0 0 0 .642-2.241 3.9 3.9 0 0 0-.639-2.355 2.149 2.149 0 0 0-1.84-.856h-2.064z" class="cls-1" data-name="패스 8" transform="translate(-67.383 -26.958)"/>
            </g>
            <g id="그룹_5" data-name="그룹 5" transform="translate(115.702 26.86)">
                <path id="패스_9" d="M86.533 41.062a8.491 8.491 0 0 1-1.97 5.965 7.484 7.484 0 0 1-10.481 0 8.517 8.517 0 0 1-1.957-5.965v-6.039a8.6 8.6 0 0 1 1.95-5.972 6.7 6.7 0 0 1 5.225-2.164 6.78 6.78 0 0 1 5.256 2.165 8.52 8.52 0 0 1 1.977 5.972zm-3.821-6.082a6.027 6.027 0 0 0-.877-3.57 2.943 2.943 0 0 0-2.536-1.2 2.873 2.873 0 0 0-2.511 1.19 6.228 6.228 0 0 0-.843 3.58v6.082a6.289 6.289 0 0 0 .85 3.613 2.883 2.883 0 0 0 2.523 1.2 2.917 2.917 0 0 0 2.533-1.2 6.2 6.2 0 0 0 .863-3.613z" class="cls-1" data-name="패스 9" transform="translate(-72.034 -26.797)"/>
                <path id="패스_10" d="M79.38 49.322a6.862 6.862 0 0 1-5.3-2.171 8.639 8.639 0 0 1-1.98-6.026v-6.038a8.726 8.726 0 0 1 1.974-6.032 6.807 6.807 0 0 1 5.293-2.195 6.9 6.9 0 0 1 5.323 2.195 8.641 8.641 0 0 1 2 6.032v6.039a8.6 8.6 0 0 1-1.994 6.025 6.9 6.9 0 0 1-5.316 2.171zm-.017-22.281a6.628 6.628 0 0 0-5.155 2.134 8.538 8.538 0 0 0-1.927 5.911v6.039a8.452 8.452 0 0 0 1.934 5.9 7.383 7.383 0 0 0 10.344 0 8.425 8.425 0 0 0 1.947-5.9v-6.038a8.469 8.469 0 0 0-1.954-5.908 6.715 6.715 0 0 0-5.189-2.138zm.017 19a2.978 2.978 0 0 1-2.6-1.245 6.385 6.385 0 0 1-.866-3.667v-6.086a6.348 6.348 0 0 1 .856-3.63 2.976 2.976 0 0 1 2.589-1.238 3.034 3.034 0 0 1 2.609 1.245 6.131 6.131 0 0 1 .9 3.623v6.082a6.3 6.3 0 0 1-.883 3.667 3.012 3.012 0 0 1-2.605 1.244zm-.017-15.677a2.8 2.8 0 0 0-2.439 1.158 6.165 6.165 0 0 0-.826 3.526v6.082a6.246 6.246 0 0 0 .833 3.563 2.812 2.812 0 0 0 2.449 1.164 2.84 2.84 0 0 0 2.459-1.168 6.14 6.14 0 0 0 .846-3.56v-6.086a5.987 5.987 0 0 0-.86-3.516 2.862 2.862 0 0 0-2.462-1.168z" class="cls-1" data-name="패스 10" transform="translate(-72.097 -26.86)"/>
            </g>
            <g id="그룹_6" data-name="그룹 6" transform="translate(133.015 27.171)">
                <path id="패스_11" d="M86.218 43.043h.082l3.817-16.062h5.159v21.655h-3.913V35l-.084-.017L87.6 48.636h-2.64l-3.646-13.552-.087.017v13.535H77.3V26.981h5.132z" class="cls-1" data-name="패스 11" transform="translate(-77.209 -26.887)"/>
                <path id="패스_12" d="M95.341 48.792h-3.914a.09.09 0 0 1-.09-.09V35.427l-3.583 13.3a.089.089 0 0 1-.087.067h-2.644a.089.089 0 0 1-.087-.067l-3.552-13.196V48.7a.091.091 0 0 1-.094.09h-3.928a.09.09 0 0 1-.09-.09V27.047a.093.093 0 0 1 .09-.094h5.132a.09.09 0 0 1 .087.07l3.744 15.864L90.1 27.023a.093.093 0 0 1 .087-.07h5.159a.1.1 0 0 1 .094.094V48.7a.093.093 0 0 1-.099.092zm-3.824-.184h3.734V27.137h-4.995l-3.8 15.991a.09.09 0 0 1-.09.07h-.084a.089.089 0 0 1-.087-.07l-3.774-15.991h-4.968v21.471H81.2V35.166a.093.093 0 0 1 .077-.09l.084-.013a.09.09 0 0 1 .1.064l3.63 13.482h2.5l3.66-13.586a.09.09 0 0 1 .1-.067l.084.017a.09.09 0 0 1 .074.09z" class="cls-1" data-name="패스 12" transform="translate(-77.272 -26.953)"/>
            </g>
            <g id="그룹_7" data-name="그룹 7" transform="translate(153.947 27.171)">
                <path id="패스_13" d="M93.72 39.072H87.5v6.293h7.454v3.272H83.556V26.981h11.365v3.285H87.5V35.8h6.22z" class="cls-1" data-name="패스 13" transform="translate(-83.466 -26.887)"/>
                <path id="패스_14" d="M95.014 48.792H83.619a.09.09 0 0 1-.09-.09V27.047a.093.093 0 0 1 .09-.094h11.365a.094.094 0 0 1 .094.094v3.285a.091.091 0 0 1-.094.09h-7.33v5.353h6.129a.09.09 0 0 1 .09.09v3.272a.09.09 0 0 1-.09.09h-6.129v6.109h7.36a.09.09 0 0 1 .09.09V48.7a.09.09 0 0 1-.09.092zm-11.3-.184H94.92V45.52h-7.36a.091.091 0 0 1-.09-.094v-6.289a.09.09 0 0 1 .09-.09h6.132v-3.091H87.56a.09.09 0 0 1-.09-.09v-5.534a.09.09 0 0 1 .09-.09h7.333v-3.1H83.71z" class="cls-1" data-name="패스 14" transform="translate(-83.529 -26.953)"/>
            </g>
            <g id="그룹_8" data-name="그룹 8" transform="translate(167.985 27.171)">
                <path id="패스_15" d="M97.917 39.072h-6.223v6.293h7.454v3.272H87.753V26.981h11.365v3.285h-7.424V35.8h6.223z" class="cls-1" data-name="패스 15" transform="translate(-87.659 -26.887)"/>
                <path id="패스_16" d="M99.213 48.792H87.819a.093.093 0 0 1-.094-.09V27.047a.1.1 0 0 1 .094-.094h11.364a.1.1 0 0 1 .094.094v3.285a.093.093 0 0 1-.094.09H91.85v5.353h6.132a.09.09 0 0 1 .09.09v3.272a.09.09 0 0 1-.09.09H91.85v6.109h7.363a.09.09 0 0 1 .09.09V48.7a.09.09 0 0 1-.09.092zm-11.3-.184H99.12V45.52h-7.36a.091.091 0 0 1-.09-.094v-6.289a.09.09 0 0 1 .09-.09h6.129v-3.091H91.76a.09.09 0 0 1-.09-.09v-5.534a.09.09 0 0 1 .09-.09h7.333v-3.1H87.909z" class="cls-1" data-name="패스 16" transform="translate(-87.725 -26.953)"/>
            </g>
            <g id="그룹_9" data-name="그룹 9" transform="translate(181.246 27.171)">
                <path id="패스_17" d="M105.111 30.266h-4.781v18.37h-3.957v-18.37h-4.657v-3.285h13.4z" class="cls-1" data-name="패스 17" transform="translate(-91.626 -26.887)"/>
                <path id="패스_18" d="M100.394 48.792h-3.958a.09.09 0 0 1-.09-.09v-18.28h-4.567a.09.09 0 0 1-.09-.09v-3.285a.093.093 0 0 1 .09-.094h13.4a.093.093 0 0 1 .09.094v3.285a.09.09 0 0 1-.09.09h-4.69V48.7a.09.09 0 0 1-.095.092zm-3.867-.184h3.773V30.332a.091.091 0 0 1 .094-.09h4.687v-3.1H91.873v3.1h4.563a.09.09 0 0 1 .09.09z" class="cls-1" data-name="패스 18" transform="translate(-91.689 -26.953)"/>
            </g>
        </g>
        <g id="그룹_12" data-name="그룹 12" transform="translate(384.119 -3.572)">
            <path id="패스_20" d="M41.117 40.924l3.117-3.812a1.385 1.385 0 0 0 .349-1.019l-.233-2.122a.838.838 0 0 0-.557-.69l-.48-.165-.357-.123-.48-.166a.839.839 0 0 0-.864.2l-1.489 1.527a1.384 1.384 0 0 0-.351 1.019l.1 4.817a38.113 38.113 0 0 1-4.588-2.64l-4.631-3.044 9.962-5.774 1.648-4.545-15.591 8.94a1.593 1.593 0 0 0 0 2.758l4.392 2.572a23.362 23.362 0 0 0 6.554 2.547 9.737 9.737 0 0 0 2.311 0 6.529 6.529 0 0 0 1.183-.277zM41.5 35.8a.651.651 0 1 1 .663.861l-1.417 4.119-.472-.2 1.406-4.08a.649.649 0 0 1-.18-.7z" class="cls-1" data-name="패스 20" transform="translate(0 4.032)"/>
            <path id="패스_21" d="M58.631 32.615l-10.99-6.336-1.045-.6a2.592 2.592 0 0 0-1.856-.123 1.979 1.979 0 0 0-1.087 1.09l-1.607 4.894-7.027 21.6h2.933l8.629-23.8L54.658 34l-9.606 5.53-1.677 4.62 15.261-8.78a1.592 1.592 0 0 0 0-2.755z" class="cls-1" data-name="패스 21" transform="translate(6.046 4.728)"/>
            <path id="패스_22" d="M36.266 36.289l1.324.455a1.077 1.077 0 0 0 1.4-.545l5.836-17.9h-3.139l-6.1 16.8a1.048 1.048 0 0 0 .679 1.19z" class="cls-1" data-name="패스 22" transform="translate(6.409)"/>
        </g>
    </g>
</svg>
